<?xml version="1.0" encoding="UTF-8"?>
<svg width="1024" height="1024" viewBox="0 0 1024 1024" xmlns="http://www.w3.org/2000/svg">
  <path id="3" d="M 0,512 C 0,512 0,0 0,0 C 0,0 512,0 512,0 C 512,0 1024,0 1024,0 C 1024,0 1024,512 1024,512 C 1024,512 1024,1024 1024,1024 C 1024,1024 512,1024 512,1024 C 512,1024 0,1024 0,1024 C 0,1024 0,512 0,512M 545.991,711.613 C 581.977,704.816 614.061,689.953 640.500,667.834 C 693.971,623.100 720.445,556.918 712.429,488.022 C 700.646,386.754 614.249,310 512.041,310 C 456.413,310 406.195,331.334 366.929,371.647 C 296.081,444.384 290.560,558.443 354.038,638 C 361.790,647.716 377.230,663.036 387.500,671.201 C 414.835,692.935 448.929,707.435 484.621,712.507 C 497.820,714.383 534.126,713.854 545.991,711.613" stroke="#FFFFFF" fill="#FFFFFF" stroke-width="1" />
  <path id="6" d="M 484.621,712.507 C 448.929,707.435 414.835,692.935 387.500,671.201 C 377.230,663.036 361.790,647.716 354.038,638 C 320.054,595.407 304.443,539.497 311.501,485.656 C 319.161,427.221 352.840,374.251 403,341.745 C 448.813,312.056 507.349,302.516 561.136,315.971 C 632.617,333.853 689.097,390.015 707.508,461.522 C 724.928,529.180 706.196,601.056 658.019,651.402 C 640.311,669.908 621.348,683.683 598.793,694.424 C 580.408,703.179 566.264,707.784 545.991,711.613 C 534.126,713.854 497.820,714.383 484.621,712.507M 532.500,696.955 C 592.279,690.120 644.386,655.255 674.763,601.767 C 683.014,587.238 690.518,566.623 694.405,547.806 C 703.225,505.106 695.188,457.246 672.689,418.500 C 662.543,401.028 645.458,381.053 629.500,368.008 C 555.962,307.893 449.387,312.892 381.486,379.639 C 334.263,426.060 315.400,494.118 331.958,558.338 C 351.093,632.551 414.554,688.073 490.338,696.906 C 500.742,698.119 522.104,698.144 532.500,696.955" stroke="#000000" fill="#000000" stroke-width="1" />
  <path id="3" d="M 490.338,696.906 C 414.554,688.073 351.093,632.551 331.958,558.338 C 327.273,540.167 325.688,525.273 326.335,505.500 C 330.218,386.896 443.326,302.304 558.367,331.966 C 592.665,340.809 620.918,357.543 646.601,384.225 C 669.395,407.906 683.812,434.076 692.121,466.855 C 711.521,543.390 680.652,622.640 613.988,667.445 C 591.128,682.809 561.092,693.686 532.500,696.955 C 522.104,698.144 500.742,698.119 490.338,696.906M 520.304,593.750 C 522.040,592.464 526.994,581.053 558.589,505.561 C 575.596,464.925 578.352,458.878 579.320,460.067 C 580.733,461.802 608.960,530.374 608.465,530.869 C 608.118,531.216 599.283,531.561 588.831,531.636 C 578.379,531.711 569.455,532.161 569.001,532.636 C 568.071,533.608 563,545.892 563,547.172 C 563,547.627 574.870,548 589.378,548 C 609.293,548 615.994,548.306 616.731,549.250 C 617.268,549.938 621.443,559.500 626.009,570.500 C 630.575,581.500 635.218,591.513 636.329,592.750 C 638.884,595.597 644.806,595.788 648.089,593.129 C 652.745,589.359 652.885,589.745 613.998,498.500 C 606.966,482 597.967,460.625 594.001,451 C 590.035,441.375 585.825,432.498 584.645,431.274 C 583.465,430.050 581.111,428.771 579.413,428.432 C 573.605,427.272 571.981,429.905 558.098,463 C 551.061,479.775 536.685,514.036 526.152,539.136 C 515.619,564.236 507,585.888 507,587.251 C 507,591.467 510.592,595 514.881,595 C 516.936,595 519.376,594.438 520.304,593.750M 396,530 C 396,530 396,466 396,466 C 396,466 387.500,466 387.500,466 C 387.500,466 379,466 379,466 C 379,466 379,530 379,530 C 379,530 379,594 379,594 C 379,594 387.500,594 387.500,594 C 387.500,594 396,594 396,594 C 396,594 396,530 396,530M 447.726,592.014 C 463.406,588.255 476.076,580.893 487.621,568.835 C 502.851,552.928 509.979,534.940 509.993,512.378 C 510.017,473.973 485.527,441.913 448.500,431.877 C 441.337,429.935 437.284,429.661 409.750,429.249 C 409.750,429.249 379,428.788 379,428.788 C 379,428.788 379,437.306 379,437.306 C 379,437.306 379,445.824 379,445.824 C 379,445.824 409.250,446.265 409.250,446.265 C 433.217,446.614 440.642,447.043 445,448.327 C 465.505,454.368 482.521,470.262 489.682,490.064 C 492.101,496.752 492.377,498.908 492.435,511.500 C 492.489,523.272 492.149,526.614 490.295,532.500 C 484.435,551.101 469.298,566.691 450.242,573.753 C 444.739,575.792 440.927,576.365 429.500,576.875 C 429.500,576.875 415.500,577.500 415.500,577.500 C 415.500,577.500 415.210,585.750 415.210,585.750 C 415.210,585.750 414.919,594 414.919,594 C 414.919,594 427.210,593.993 427.210,593.993 C 435.975,593.988 441.860,593.420 447.726,592.014" stroke="#FFFFFF" fill="#FFFFFF" stroke-width="1" />
  <path id="6" d="M 379,530 C 379,530 379,466 379,466 C 379,466 387.500,466 387.500,466 C 387.500,466 396,466 396,466 C 396,466 396,530 396,530 C 396,530 396,594 396,594 C 396,594 387.500,594 387.500,594 C 387.500,594 379,594 379,594 C 379,594 379,530 379,530" stroke="#000000" fill="#000000" stroke-width="1" />
  <path id="6" d="M 509.073,592.365 C 507.933,590.916 507,588.614 507,587.251 C 507,585.888 515.619,564.236 526.152,539.136 C 536.685,514.036 551.061,479.775 558.098,463 C 571.981,429.905 573.605,427.272 579.413,428.432 C 581.111,428.771 583.465,430.050 584.645,431.274 C 585.825,432.498 590.035,441.375 594.001,451 C 597.967,460.625 606.966,482 613.998,498.500 C 642.691,565.826 650.329,584.598 650.364,587.879 C 650.434,594.444 640.838,597.775 636.329,592.750 C 635.218,591.513 630.575,581.500 626.009,570.500 C 621.443,559.500 617.268,549.938 616.731,549.250 C 615.994,548.306 609.293,548 589.378,548 C 574.870,548 563,547.627 563,547.172 C 563,545.892 568.071,533.608 569.001,532.636 C 569.455,532.161 578.379,531.711 588.831,531.636 C 599.283,531.561 608.118,531.216 608.465,530.869 C 608.960,530.374 580.733,461.802 579.320,460.067 C 578.352,458.878 575.596,464.925 558.589,505.561 C 526.994,581.053 522.040,592.464 520.304,593.750 C 519.376,594.438 516.936,595 514.881,595 C 512.036,595 510.651,594.372 509.073,592.365" stroke="#000000" fill="#000000" stroke-width="1" />
  <path id="6" d="M 415.210,585.750 C 415.210,585.750 415.500,577.500 415.500,577.500 C 415.500,577.500 429.500,576.875 429.500,576.875 C 440.927,576.365 444.739,575.792 450.242,573.753 C 469.298,566.691 484.435,551.101 490.295,532.500 C 492.149,526.614 492.489,523.272 492.435,511.500 C 492.377,498.908 492.101,496.752 489.682,490.064 C 482.521,470.262 465.505,454.368 445,448.327 C 440.642,447.043 433.217,446.614 409.250,446.265 C 409.250,446.265 379,445.824 379,445.824 C 379,445.824 379,437.306 379,437.306 C 379,437.306 379,428.788 379,428.788 C 379,428.788 409.750,429.249 409.750,429.249 C 437.284,429.661 441.337,429.935 448.500,431.877 C 485.527,441.913 510.017,473.973 509.993,512.378 C 509.979,534.940 502.851,552.928 487.621,568.835 C 471.001,586.195 452.309,593.979 427.210,593.993 C 427.210,593.993 414.919,594 414.919,594 C 414.919,594 415.210,585.750 415.210,585.750" stroke="#000000" fill="#000000" stroke-width="1" />
</svg>
